Motion_pl16
version=1
nRows=5
nColumns=43
inDegrees=yes
endheader
time	pelvis_tilt	pelvis_list	pelvis_rotation	pelvis_tx	pelvis_ty	pelvis_tz	hip_flexion_r	hip_adduction_r	hip_rotation_r	knee_angle_r	ankle_angle_r	subtalar_angle_r	mtp_angle_r	hip_flexion_l	hip_adduction_l	hip_rotation_l	knee_angle_l	ankle_angle_l	subtalar_angle_l	mtp_angle_l	lumbar_extension	lumbar_bending	lumbar_rotation	neck_flexion	neck_lateral_bending	neck_rotation	arm_flex_r	arm_add_r	arm_rot_r	elbow_flex_r	pro_sup_r	wrist_flex_r	wrist_dev_r	hand_finger_flex_r	arm_flex_l	arm_add_l	arm_rot_l	elbow_flex_l	pro_sup_l	wrist_flex_l	wrist_dev_l	hand_finger_flex_l
      0.57000000	      0.57583013	    -24.13718093	     85.09774712	      0.02427240	      2.01411138	      1.53684890	     42.82034465	      4.01638584	      5.91625649	    -86.51147944	     -2.39301203	     -7.06378544	     12.25039738	     49.23688273	     -8.96014547	     -5.61081237	    -91.84749727	    -10.78319065	     -1.07562864	     20.22400172	    -29.09912693	     -1.61292795	      2.67942678	     14.07117332	     -2.04393599	      3.40321501	    110.76404008	    -10.52604104	     17.73386264	     71.86383055	    104.20919198	     -0.65495652	      6.29267372	     33.00129959	    113.89721351	    -18.50145381	     26.36758283	     75.35073001	     91.03752349	    -12.63159547	      1.64203502	     33.32209956
      0.57250000	      0.56239230	    -24.07048806	     85.14203639	      0.02419917	      2.01511441	      1.53257701	     42.77034810	      3.96687410	      5.94843345	    -86.43437377	     -3.73791553	     -6.67094167	     12.19335018	     49.18065285	     -8.92290771	     -5.51746955	    -91.61526090	    -10.39287390	     -1.30458357	     20.32675349	    -29.04894485	     -1.63351177	      2.58375698	     13.84783183	     -1.97864567	      3.40728422	    110.96330537	    -10.33234129	     17.69319906	     71.60923797	    104.41553630	     -0.64439881	      6.33197986	     32.97884587	    114.06150878	    -18.32678859	     26.36008070	     75.07168899	     90.99857647	    -12.73772955	      1.69072850	     33.24841869
      0.57500000	      0.50776030	    -23.95126364	     85.08367874	      0.02424028	      2.01625837	      1.52823656	     42.65712370	      4.02309120	      6.05796978	    -86.30612045	     -5.44769090	     -7.40831362	     12.61243590	     48.99462208	     -8.89202681	     -5.55764180	    -91.30728680	     -9.60679190	     -1.92898749	     20.73303271	    -29.08231887	     -1.71666779	      2.53675519	     13.69125636	     -1.98637716	      3.47536149	    111.09842315	    -10.04480458	     17.50088842	     71.45169509	    105.37146152	     -0.53378131	      6.18715759	     32.97270181	    114.20793582	    -18.23677457	     26.42306515	     74.91153797	     90.77566293	    -13.15191301	      1.70733860	     32.94557296
      0.57750000	      0.50118633	    -23.88772640	     85.11982752	      0.02416727	      2.01716227	      1.52408047	     42.62215717	      3.99000342	      6.09341434	    -86.20433318	     -6.70111615	     -7.02621260	     12.63533074	     48.98602170	     -8.86178851	     -5.44024260	    -91.05869298	     -9.35224104	     -2.15518832	     20.80624529	    -29.04149765	     -1.73438990	      2.44287796	     13.48253390	     -1.92597179	      3.48923742	    111.28630911	     -9.84485473	     17.48563796	     71.17461959	    105.55606140	     -0.54077775	      6.21794454	     32.94763749	    114.34152412	    -18.05928924	     26.40030546	     74.62297328	     90.70828530	    -13.27261137	      1.76790076	     32.86091638
      0.58000000	      0.48975550	    -23.81333745	     85.08596993	      0.02420683	      2.01813441	      1.51991899	     42.57388801	      4.05422192	      6.12921230	    -86.02925117	     -8.44188661	     -7.85712986	     13.91604790	     48.93345884	     -8.87119687	     -5.43938597	    -90.75580993	     -9.12308279	     -3.07241397	     21.22324284	    -29.02656851	     -1.76015658	      2.40573220	     13.30934964	     -1.98820266	      3.55392841	    111.41079093	     -9.51576813	     17.31718176	     70.90528730	    106.63705070	     -0.48377895	      5.94239865	     32.95262012	    114.44045830	    -18.00048244	     26.50378845	     74.45101268	     90.22577970	    -13.81589843	      1.87481658	     32.41579878
